<?xml version="1.0" encoding="UTF-8"?>
<svg version="1.1" xmlns="http://www.w3.org/2000/svg" width="16" height="16">
<path d="M0 0 C2.375 1.625 2.375 1.625 4 4 C4.61195145 7.6717087 4.48706506 9.28813568 2.375 12.375 C-0.71186432 14.48706506 -2.3282913 14.61195145 -6 14 C-8.375 12.375 -8.375 12.375 -10 10 C-10.61195145 6.3282913 -10.48706506 4.71186432 -8.375 1.625 C-5.28813568 -0.48706506 -3.6717087 -0.61195145 0 0 Z M-5 2 C-4.67 2.99 -4.34 3.98 -4 5 C-3.01 4.67 -2.02 4.34 -1 4 C-1 3.34 -1 2.68 -1 2 C-2.32 2 -3.64 2 -5 2 Z M-7 3 C-7.67801034 5.90073181 -7.67801034 5.90073181 -8 9 C-7.34 9.66 -6.68 10.32 -6 11 C-6 8.36 -6 5.72 -6 3 C-6.33 3 -6.66 3 -7 3 Z M0 3 C0 5.64 0 8.28 0 11 C0.66 10.34 1.32 9.68 2 9 C1.67801034 5.90073181 1.67801034 5.90073181 1 3 C0.67 3 0.34 3 0 3 Z M-5 7 C-5 8.65 -5 10.3 -5 12 C-3.68 12 -2.36 12 -1 12 C-1 10.35 -1 8.7 -1 7 C-2.32 7 -3.64 7 -5 7 Z " fill="#000000" transform="translate(11,1)"/>
</svg>
